<svg width="370" height="360" viewBox="0 0 370 360" fill="none" xmlns="http://www.w3.org/2000/svg">
<path d="M85.6862 262.267C79.2062 262.267 73.3462 262.287 67.4862 262.267C60.9962 262.237 58.6162 259.897 58.6062 253.487C58.5862 243.227 58.5062 232.977 58.6662 222.717C58.7062 220.097 57.8062 218.727 55.5762 217.477C39.5762 208.467 23.6462 199.347 7.72618 190.197C1.58618 186.667 -1.10382 180.867 0.416175 174.847C2.68618 165.847 12.2562 161.767 20.6062 166.417C28.0262 170.557 35.2962 174.947 42.6362 179.217C55.9162 186.947 69.1862 194.687 82.4662 202.417C83.3062 202.907 84.1762 203.337 85.6962 204.147C85.6962 202.347 85.6962 201.047 85.6962 199.757C85.6962 181.377 85.6962 162.987 85.6962 144.607C85.6962 134.277 90.1762 129.827 100.586 129.807C110.716 129.787 120.846 129.807 130.966 129.807C132.306 129.807 133.646 129.807 135.416 129.807C135.416 127.857 135.416 126.387 135.416 124.917C135.416 108.157 135.396 91.3974 135.416 74.6374C135.436 63.1074 139.956 56.4774 150.476 52.0174C151.376 51.6374 152.306 50.1274 152.336 49.1174C152.516 43.7474 152.396 38.3674 152.436 32.9874C152.496 24.5674 157.326 19.6774 165.696 19.6574C184.826 19.6174 203.956 19.5174 223.086 19.7774C226.116 19.8174 229.106 21.6274 232.136 22.4974C233.476 22.8874 234.986 23.4374 236.266 23.1774C266.096 16.9974 295.906 10.7174 325.716 4.44743C332.186 3.08743 338.646 1.60743 345.136 0.327435C352.796 -1.17257 358.956 2.58743 360.306 9.42743C361.676 16.3674 357.656 22.0674 349.926 23.6974C313.276 31.4174 276.616 39.0774 239.946 46.7174C237.686 47.1874 235.566 47.4474 236.866 51.1674C238.066 51.1674 239.506 51.1674 240.936 51.1674C275.576 51.1674 310.216 51.5074 344.836 51.0074C360.006 50.7874 369.336 61.5674 369.296 75.4474C369.016 162.367 369.156 249.287 369.156 336.207C369.156 351.027 361.046 359.327 346.296 359.337C264.396 359.367 182.496 359.357 100.596 359.337C90.2962 359.337 85.6962 354.697 85.6962 344.467C85.6962 318.707 85.6962 292.937 85.6962 267.177C85.6962 265.697 85.6962 264.217 85.6962 262.257L85.6862 262.267ZM360.006 191.407C358.086 191.407 356.486 191.407 354.886 191.407C300.006 191.407 245.126 191.407 190.246 191.407C188.756 191.407 186.876 191.817 185.856 191.097C184.356 190.027 182.616 188.137 182.556 186.537C182.506 185.237 184.596 183.547 186.106 182.627C187.126 182.007 188.786 182.417 190.156 182.417C245.156 182.417 300.166 182.417 355.166 182.417C356.746 182.417 358.316 182.417 359.896 182.417V116.037H256.766C256.766 124.007 256.766 131.737 256.766 139.457C256.766 148.587 253.746 151.637 244.696 151.647C221.566 151.647 198.446 151.647 175.316 151.637C173.826 151.637 172.306 151.587 170.846 151.297C166.566 150.457 163.816 147.307 163.546 142.977C163.416 140.857 163.486 138.727 163.476 136.607C163.476 129.767 163.476 122.937 163.476 115.997H144.716V182.107C148.226 182.867 153.246 181.277 153.496 186.527C153.776 192.577 148.136 190.917 144.686 191.757V264.947H360.006V191.427V191.407ZM144.856 274.397V350.187C145.926 350.257 146.666 350.357 147.406 350.357C214.026 350.357 280.646 350.387 347.266 350.337C355.716 350.337 360.136 345.667 360.146 337.217C360.166 317.467 360.146 297.707 360.146 277.957C360.146 276.767 360.146 275.577 360.146 274.397H144.856ZM135.336 138.817C123.566 138.817 112.206 138.817 100.846 138.817C95.1662 138.817 94.6862 139.317 94.6862 145.077C94.6862 190.597 94.6862 236.107 94.6862 281.627C94.6862 282.967 94.6862 284.307 94.6862 286.057C101.956 286.057 108.796 286.057 115.636 286.057C122.946 286.057 123.666 286.797 123.666 294.277C123.666 311.537 123.666 328.787 123.666 346.047V350.047H135.336V138.807V138.817ZM144.646 86.7774H360.146C360.146 82.8374 360.146 79.2174 360.146 75.5974C360.146 64.5474 355.776 60.1774 344.706 60.1774C283.076 60.1774 221.446 60.1774 159.816 60.1774C158.696 60.1774 157.566 60.1574 156.446 60.2174C150.276 60.5074 145.276 64.6874 144.746 70.7874C144.286 75.9774 144.656 81.2374 144.656 86.7774H144.646ZM144.606 106.777C150.186 106.777 155.426 106.707 160.666 106.807C163.116 106.857 165.016 106.357 167.036 104.647C168.676 103.267 171.356 102.537 173.586 102.527C197.966 102.387 222.346 102.377 246.716 102.537C249.036 102.557 251.346 103.977 253.656 104.787C255.416 105.407 257.146 106.677 258.896 106.677C291.276 106.797 323.656 106.757 356.036 106.757C357.346 106.757 358.666 106.757 359.846 106.757V96.3374H144.606V106.757V106.777ZM227.396 50.9774C227.396 44.4574 227.556 38.1174 227.236 31.7974C227.176 30.6974 225.086 28.8174 223.916 28.8074C204.326 28.6174 184.726 28.6274 165.136 28.7774C163.926 28.7774 161.736 30.3574 161.696 31.2674C161.396 37.8074 161.536 44.3674 161.536 50.9674H227.386L227.396 50.9774ZM247.446 142.447V111.737H172.716V142.447H247.446ZM236.566 38.0374C238.116 37.8174 239.236 37.7274 240.326 37.4974C275.646 30.1074 310.966 22.7174 346.276 15.2974C348.566 14.8174 352.096 15.0374 351.336 11.3474C350.516 7.34743 347.166 9.17744 344.846 9.65744C315.386 15.7674 285.936 21.9574 256.496 28.1374C249.826 29.5374 243.166 31.0074 236.566 32.4274V38.0374ZM85.5562 216.977H67.8462V252.987H85.5562V216.977ZM71.7662 206.787C71.5662 206.627 71.2462 206.297 70.8662 206.077C52.7762 195.527 34.6962 184.987 16.5962 174.457C13.9962 172.947 11.4562 172.927 9.78617 175.737C8.09617 178.577 9.35618 180.787 11.9662 182.277C27.4262 191.137 42.9062 199.967 58.3962 208.787C59.0362 209.147 59.8362 209.727 60.4262 209.597C64.1862 208.767 67.9062 207.767 71.7762 206.787H71.7662ZM114.516 295.347H94.9562V307.407H114.516V295.347ZM94.7062 338.317C94.7062 341.387 94.3562 344.167 94.8562 346.787C95.1062 348.097 96.8362 350.027 97.9962 350.107C103.406 350.457 108.856 350.267 114.406 350.267V338.317H94.7162H94.7062ZM94.9362 316.907V328.787H114.396V316.907H94.9362Z" fill="white"/>
</svg>
