<svg width="348" height="319" viewBox="0 0 348 319" fill="none" xmlns="http://www.w3.org/2000/svg">
<path d="M348 203.928C347.477 205.75 347.001 207.592 346.423 209.4C342.243 222.395 330.397 231.359 316.702 231.896C315.234 231.958 313.759 231.964 312.284 231.964C239.363 231.964 166.442 231.822 93.5214 232.08C77.5901 232.134 66.634 224.95 59.8374 211.35C57.812 207.293 58.0295 201.883 58.0159 197.098C57.9004 143.078 57.9412 89.0588 57.9615 35.0326C57.9615 32.7761 58.1179 30.506 58.3829 28.2632C60.2044 12.9436 73.485 0.689325 88.9269 0.0504434C90.5105 -0.0175226 92.0941 0.00286739 93.6845 0.00286739C166.49 0.00286739 239.302 0.00286739 312.107 0.00286739C331.464 0.00286739 342.671 8.65495 347.565 27.3796C347.613 27.5699 347.844 27.7126 347.993 27.8758V203.942L348 203.928ZM326.115 147.516C326.19 146.055 326.251 145.416 326.251 144.771C326.251 107.614 326.271 70.4565 326.237 33.2995C326.237 26.0679 321.636 21.7452 314.099 21.7452C240.022 21.7384 165.953 21.7384 91.8766 21.7452C84.0537 21.7452 79.7107 26.0747 79.7107 33.9859C79.6903 81.6777 79.6971 129.37 79.7107 177.061C79.7107 177.877 79.8738 178.699 80.0097 179.963C81.1991 178.842 82.0215 178.088 82.8099 177.306C97.2323 162.89 111.668 148.495 126.057 134.052C129.652 130.443 133.717 127.65 138.705 126.488C148.309 124.252 156.614 126.746 163.581 133.699C169.168 139.272 174.734 144.873 180.491 150.65C185.31 144.879 189.877 139.415 194.437 133.937C207.412 118.359 220.407 102.802 233.341 87.1898C240.518 78.5309 249.572 75.1938 260.555 77.5454C267.134 78.9591 271.457 83.6487 275.63 88.5355C292.241 108.001 308.913 127.419 326.129 147.516H326.115ZM83.0002 206.953C86.5685 210.256 89.8512 210.222 93.168 210.222C166.34 210.208 239.513 210.215 312.685 210.208C313.589 210.208 314.5 210.222 315.403 210.188C321.813 209.937 326.135 205.546 326.237 199.076C326.312 194.542 326.033 189.995 326.326 185.489C326.536 182.268 325.367 179.984 323.349 177.639C301.695 152.492 280.115 127.276 258.529 102.074C254.479 97.3439 253.167 97.3779 249.096 102.278C229.61 125.699 210.117 149.114 190.618 172.521C185.126 179.107 178.554 179.44 172.532 173.439C164.668 165.602 156.839 157.732 148.982 149.888C145.346 146.259 144.652 146.259 141.016 149.888C123.392 167.505 105.782 185.142 88.1317 202.732C86.6228 204.234 84.8353 205.458 83.007 206.953H83.0002Z" fill="white"/>
<path d="M0.0135932 221.599C3.63619 207.843 7.27917 194.087 10.8882 180.33C15.8225 161.517 20.6889 142.691 25.664 123.891C27.0641 118.604 30.8702 115.532 35.7638 115.355C40.5961 115.185 44.8508 117.72 46.2373 122.362C46.9374 124.714 46.985 127.575 46.3733 129.961C38.6047 160.301 30.6799 190.607 22.7686 220.913C20.3422 230.211 23.1085 235.091 32.3722 237.572C105.755 257.227 179.138 276.876 252.521 296.512C260.344 298.605 265.605 295.519 267.576 287.69C269.948 278.256 272.225 268.802 274.59 259.368C276.235 252.796 281.726 249.037 287.612 250.383C293.926 251.824 297.318 257.642 295.666 264.513C293.287 274.409 290.902 284.305 288.299 294.14C283.412 312.565 266.006 322.631 247.566 317.704C190.991 302.595 134.43 287.431 77.8687 272.282C60.7277 267.687 43.607 263.004 26.432 258.512C12.397 254.835 3.62939 246.19 0.550525 231.917C0.489356 231.624 0.190305 231.38 0 231.115C0 227.941 0 224.767 0 221.599H0.0135932Z" fill="white"/>
</svg>
