<svg width="308" height="309" viewBox="0 0 308 309" fill="none" xmlns="http://www.w3.org/2000/svg">
<path d="M148.017 0C153.045 0 158.074 0 163.102 0C169.852 0.965575 176.65 1.65757 183.336 2.95305C255.624 16.9297 308.08 80.6496 308 154.243C307.984 169.563 302.722 182.84 291.949 193.67C258.963 226.822 225.856 259.852 192.765 292.899C185.87 299.787 177.632 304.47 168.227 307.037C165.347 307.825 162.394 308.356 159.481 309H148.017C147.236 308.831 146.464 308.574 145.684 308.517C132.103 307.584 118.78 305.202 105.77 301.179C73.9184 291.33 47.6179 273.499 28.5262 245.996C2.71646 208.814 -5.11978 167.584 3.15896 123.392C15.3236 58.546 64.1593 12.0375 129.52 2.38175C135.667 1.4725 141.854 0.788553 148.017 0ZM214.85 184.457C215.598 184.071 216.041 183.894 216.427 183.644C235.664 171.18 256.759 165.025 279.648 164.775C285.73 164.711 290.316 160.165 289.777 154.082C288.9 144.096 288.176 133.99 286.044 124.229C277.62 85.7028 256.855 55.8102 222.131 36.4183C196.265 21.9749 168.339 16.9297 138.933 19.7943C118.329 21.7978 98.9236 27.7522 81.3041 38.631C37.6255 65.6028 18.6303 106.406 17.335 156.294C16.7638 178.454 22.4599 199.649 33.4339 218.952C59.7343 265.211 99.7684 289.125 152.973 290.839C159.192 291.04 163.697 286.824 163.794 280.741C164.067 263.634 167.398 247.227 174.768 231.73C175.5 230.193 175.186 229.461 173.786 228.616C168.533 225.462 163.271 222.307 158.17 218.912C154.992 216.796 152.281 216.796 149.03 218.864C137.332 226.299 125.522 233.573 113.695 240.814C106.213 245.393 97.5881 245.135 91.0793 240.074C84.112 234.651 81.7305 227.489 83.8143 218.912C86.9842 205.836 90.0415 192.729 93.5251 179.742C94.7561 175.171 93.7102 172.267 90.0978 169.33C79.5019 160.696 69.0751 151.829 58.7367 142.889C52.2441 137.273 50.2166 130.007 52.767 121.872C55.3335 113.704 61.2791 108.949 69.775 108.177C83.8867 106.897 98.0386 105.972 112.182 105.071C115.73 104.845 117.871 103.494 119.214 100.122C124.291 87.3362 129.553 74.6309 134.758 61.9014C138.306 53.2273 145.008 48.5201 153.657 48.5684C162.209 48.6167 168.774 53.2595 172.282 61.829C177.535 74.647 182.781 87.473 187.962 100.323C189.081 103.099 190.786 104.797 193.924 105.006C205.759 105.795 217.594 106.616 229.42 107.517C233.322 107.814 237.329 107.911 241.062 108.941C248.424 110.977 253.098 116.062 254.804 123.537C256.598 131.423 254.08 138.069 248.013 143.259C237.393 152.344 226.612 161.243 216.049 170.392C214.536 171.703 213.048 173.956 213 175.823C212.927 178.607 214.134 181.431 214.85 184.481V184.457ZM184.704 214.124C186.965 211.26 189.016 208.54 191.197 205.933C193.811 202.795 198.011 200.083 198.791 196.575C199.612 192.882 197.375 188.424 196.185 184.385C192.645 172.363 195.967 162.884 205.807 155.087C215.968 147.041 225.687 138.439 235.551 130.015C236.283 129.387 236.589 128.261 237.096 127.367C236.267 126.941 235.454 126.209 234.602 126.144C221.174 125.082 207.754 123.915 194.31 123.175C182.934 122.556 175.267 117.237 171.043 106.688C166.071 94.2964 160.994 81.9532 155.893 69.6179C155.435 68.5156 154.429 67.6466 153.681 66.6649C152.836 67.6546 151.661 68.5156 151.187 69.6662C145.917 82.3635 140.752 95.1091 135.554 107.839C131.652 117.398 124.323 122.218 114.242 123.03C100.814 124.1 87.3784 124.994 73.9587 126.064C72.6312 126.168 71.36 126.981 70.0566 127.464C70.8853 128.615 71.5289 129.99 72.5748 130.884C82.9695 139.767 93.4608 148.53 103.863 157.405C110.879 163.391 113.808 171.084 111.812 180.08C108.739 193.887 105.151 207.582 101.876 221.35C101.562 222.67 101.925 224.15 101.973 225.558C103.332 225.14 104.853 224.971 106.028 224.255C117.42 217.278 128.788 210.262 140.1 203.149C149.014 197.54 157.88 197.597 166.779 203.02C172.692 206.625 178.565 210.31 184.704 214.116V214.124ZM275.995 183.089C217.087 185.093 180.987 237.137 182.62 276.436C213.49 245.578 244.747 214.333 275.995 183.089Z" fill="white"/>
</svg>
