<svg width="381" height="381" viewBox="0 0 381 381" fill="none" xmlns="http://www.w3.org/2000/svg">
<g clip-path="url(#clip0_116_73)">
<path d="M266.68 380.04C260.14 378.94 253.54 378.1 247.07 376.68C222.49 371.28 200 360.66 178.19 348.49C144.3 329.58 114.09 305.87 87.68 277.47C55.48 242.84 28.85 204.52 12.08 159.94C5.98003 143.71 1.49003 127.1 1.02003 109.6C0.550028 91.97 4.98003 76.1 17.61 63.22C27.63 53 37.3 42.33 48.08 32.97C64.75 18.49 82.89 18.6 98.96 33.67C115.96 49.62 132.29 66.34 148.17 83.41C160.37 96.53 160.2 115.92 148.34 129.36C139.94 138.88 130.66 147.62 121.76 156.69C120.99 157.48 120.1 158.16 118.64 159.45C143.06 203.03 176.74 236.9 220.62 261.29C227.95 253.87 234.86 246.83 241.82 239.84C247.49 234.14 253.2 228.49 261.01 225.68C273.84 221.05 286.09 222.59 295.89 231.91C313.68 248.82 331.03 266.24 347.88 284.1C359.75 296.68 360.16 316.48 348.8 329.6C337.92 342.17 326.08 353.97 314.11 365.53C305.64 373.71 294.89 377.83 283.2 379.35C282.37 379.46 281.57 379.81 280.75 380.04H266.67H266.68ZM271.87 358.5C285.37 358.56 295.48 354.62 303.73 345.99C311.75 337.61 319.95 329.39 328.05 321.09C329.08 320.03 330.07 318.92 330.99 317.77C336.7 310.64 336.77 303.47 330.58 296.75C324.06 289.68 317.12 282.98 310.33 276.16C301.53 267.33 292.78 258.44 283.84 249.75C277.29 243.39 269.94 243.31 263 249.2C261.68 250.32 260.47 251.55 259.24 252.77C250.76 261.23 242.34 269.75 233.8 278.14C227.68 284.15 220.89 285.25 213.49 281.51C208.32 278.9 203.13 276.28 198.16 273.31C175.82 259.99 156.39 243.13 138.84 224.05C123.33 207.19 109.19 189.35 99.64 168.27C94.59 157.13 95.66 151.68 104.42 143.18C113.28 134.59 122.16 126 130.66 117.06C137.4 109.97 137.16 103.08 130.72 95.67C129.91 94.74 129.06 93.84 128.19 92.96C114.24 78.97 100.3 64.98 86.32 51.02C77.31 42.02 69.36 41.93 60.37 50.8C51.76 59.3 42.98 67.66 34.81 76.56C30.97 80.74 27.46 85.7 25.4 90.93C20.92 102.33 22.22 114.28 24.61 125.97C28.29 143.96 35.11 160.88 43.21 177.28C57.51 206.25 76.11 232.3 97.65 256.27C135.74 298.66 180.9 330.89 234.53 350.77C247.09 355.42 260.13 357.99 271.86 358.48L271.87 358.5Z" fill="white"/>
<path d="M380.04 171.07C379.95 171.15 379.81 171.22 379.77 171.32C377.47 177.68 373.75 180.78 368.79 180.46C362.76 180.07 359.21 176.61 357.86 169.39C352.91 142.8 342.78 118.39 326.96 96.45C306.26 67.74 279.74 46.12 246.74 33.16C234.77 28.46 222.04 25.66 209.59 22.25C202.72 20.37 198.81 15.3 200.13 9.13C201.45 2.96 207.1 -0.120002 214.15 1.17C244.08 6.65 271.52 18.05 296.26 35.77C319.63 52.51 338.79 73.19 353.61 97.87C366.37 119.14 374.74 142.04 379.28 166.39C379.44 167.22 379.78 168.02 380.03 168.84V171.06L380.04 171.07Z" fill="white"/>
<path d="M208.54 69.21C214.51 70.76 221.51 71.95 228.05 74.36C273.35 91.1 301.02 123.18 310.87 170.52C312.1 176.45 308.66 181.86 303.01 183.39C297.52 184.87 291.85 181.67 290.01 175.85C287.38 167.53 285.78 158.75 282.18 150.88C267.27 118.24 241.94 98.33 206.74 91.07C200.68 89.82 197.26 86.32 196.94 81.16C196.62 75.94 199.45 71.66 204.33 70.07C205.37 69.73 206.48 69.62 208.53 69.2L208.54 69.21Z" fill="white"/>
</g>
<defs>
<clipPath id="clip0_116_73">
<rect width="380.04" height="380.04" fill="white"/>
</clipPath>
</defs>
</svg>
