<svg width="385" height="306" viewBox="0 0 385 306" fill="none" xmlns="http://www.w3.org/2000/svg">
<path d="M384 136.158C382.76 138.418 381.75 140.858 380.22 142.898C376.73 147.528 371.76 149.298 366.1 149.318C360.98 149.338 355.87 149.318 350.51 149.318V271.598C352.23 271.598 354.03 271.548 355.83 271.598C365.74 271.898 372.61 278.908 372.76 288.858C372.78 290.228 372.78 291.608 372.76 292.978C372.68 300.418 368.46 304.988 361.05 305.258C355.06 305.468 349.05 305.328 343.05 305.328C334.8 305.328 326.55 305.388 318.3 305.308C309.52 305.228 305.37 300.858 305.22 292.068C305.13 286.818 305.6 281.818 309.18 277.628C312.73 273.468 317.28 271.538 322.73 271.578C328.07 271.618 333.42 271.578 338.82 271.578V149.528H303.12V154.118C303.12 184.368 303.12 214.618 303.12 244.858C303.12 255.318 298.24 260.298 287.8 260.298C223.93 260.318 160.07 260.318 96.2 260.298C85.76 260.298 80.89 255.328 80.89 244.848C80.89 214.728 80.89 184.598 80.89 154.478V149.668H45.19V271.568C50.22 271.568 55.19 271.558 60.16 271.568C71.98 271.608 78.72 278.368 78.75 290.178C78.75 291.178 78.76 292.178 78.75 293.178C78.65 300.368 74.41 305.108 67.2 305.208C52.46 305.418 37.7 305.418 22.96 305.218C15.56 305.118 11.33 300.388 11.26 292.958C11.24 291.088 11.19 289.208 11.3 287.338C11.79 279.128 18.14 272.488 26.32 271.728C28.65 271.518 31.01 271.698 33.55 271.698V149.308C29.54 149.308 25.58 149.068 21.66 149.358C11.22 150.128 3.73 146.278 0 136.158C0 98.6578 0 61.1478 0 23.6478C0.15 23.4578 0.39 23.2878 0.45 23.0778C5.05 7.09779 14.37 0.0777913 31.04 0.0777913C117.77 0.0777913 204.5 0.0777913 291.23 0.0777913C292.73 0.0777913 294.25 0.0177916 295.72 0.257792C298.58 0.717792 300.1 2.57779 300.22 5.41779C300.33 8.24779 298.98 10.2978 296.17 10.9378C294.49 11.3178 292.7 11.3078 290.96 11.3078C219.98 11.3278 148.99 11.3178 78.01 11.3178C76.3 11.3178 74.59 11.3178 72.65 11.3178V22.3278H311.62C311.62 16.9578 311.54 11.7478 311.65 6.53779C311.74 2.15779 313.58 0.137792 317.74 0.117792C330.99 0.0477922 344.24 -0.162209 357.48 0.237791C369.79 0.617791 379.74 9.00779 383.07 20.8878C383.33 21.8178 383.7 22.7278 384.02 23.6478V136.158H384ZM270.13 98.8078C269.44 102.118 268.95 105.338 268.09 108.458C264.4 121.758 255.01 129.618 242.72 134.568C236.47 137.078 230.03 139.138 223.89 141.878C215.25 145.738 212.58 152.188 215.63 161.198C216.5 163.758 217.97 166.158 219.38 168.488C221.32 171.688 223.68 174.638 225.52 177.898C234.05 193.058 229.85 210.648 215.07 219.838C200.99 228.588 186.21 229.078 171.65 221.068C154.59 211.668 149.38 192.818 158.76 175.688C160.85 171.868 163.48 168.338 165.81 164.638C172.97 153.288 170.03 144.818 157.38 140.528C151.24 138.448 144.95 136.778 138.88 134.528C130.81 131.528 124.18 126.568 120.04 118.788C118.45 115.798 119.18 112.828 121.69 111.188C124.37 109.438 127.78 109.958 129.49 112.968C133.58 120.158 140.24 123.418 147.67 125.788C154.08 127.838 160.58 129.698 166.76 132.318C174.69 135.678 179.22 141.958 180.41 150.638C181.4 157.828 179.45 164.208 175.63 170.188C172.94 174.388 169.94 178.458 167.77 182.918C162.88 192.978 165.5 202.958 174.29 209.588C184.73 217.458 201.3 217.058 211.3 208.678C217.17 203.758 219.78 197.458 218.09 189.998C217.29 186.458 215.25 183.148 213.47 179.888C210.91 175.188 207.45 170.898 205.48 165.988C199.54 151.168 204.92 138.248 219.33 131.558C222.38 130.138 225.59 129.098 228.71 127.808C234.12 125.578 239.71 123.678 244.87 120.958C253.55 116.388 257.49 108.498 258.53 99.0178C258.62 98.1778 258.15 97.1778 257.7 96.3878C256.13 93.6078 254.09 91.0378 252.89 88.1178C250.48 82.2378 248.59 76.1378 246.26 70.2278C245.83 69.1378 244.34 67.7178 243.34 67.7078C235.7 67.6978 231.14 64.1078 229.82 56.6478H72.7V107.798H80.89C80.89 105.388 80.89 103.268 80.89 101.158C80.9 91.4978 84.92 87.4278 94.46 87.4278C141.2 87.4278 187.94 87.4278 234.68 87.4278C235.68 87.4278 236.69 87.3678 237.68 87.4678C240.91 87.7778 243.07 90.0678 243.04 93.0978C243.02 96.1178 240.84 98.3578 237.59 98.6478C236.47 98.7478 235.34 98.6778 234.22 98.6778C188.35 98.6778 142.49 98.6778 96.62 98.6778H92.13C92.13 100.488 92.13 101.728 92.13 102.978C92.13 149.968 92.13 196.968 92.13 243.958C92.13 249.098 92.13 249.108 97.35 249.108C160.46 249.108 223.58 249.108 286.69 249.108C291.86 249.108 291.87 249.088 291.87 243.908C291.87 196.918 291.87 149.918 291.87 102.928V98.8278H270.13V98.8078ZM60.94 11.6878C48.64 11.6878 36.52 11.1578 24.48 11.8778C17 12.3278 11.31 19.9278 11.29 27.8178C11.2 62.4278 11.23 97.0378 11.27 131.638C11.27 135.778 13.28 137.968 17.47 138.008C31.59 138.118 45.7 138.038 59.82 138.008C60.15 138.008 60.48 137.738 60.94 137.538V11.6878ZM323.06 138.028C337.96 138.028 352.43 138.128 366.91 137.968C371.07 137.928 372.74 135.598 372.75 130.888C372.76 96.9078 372.78 62.9278 372.75 28.9378C372.74 18.5478 365.78 11.5078 355.44 11.3378C349.82 11.2478 344.2 11.3178 338.58 11.3178C333.48 11.3178 328.39 11.3178 323.08 11.3178V138.018L323.06 138.028ZM72.63 44.8178H229.87V34.0678H72.63V44.8178ZM288.9 34.0878H241.56V56.0378H288.9V34.0878ZM311.23 107.818V56.3278C308.13 56.3278 305.38 56.1978 302.65 56.3978C301.79 56.4578 300.54 57.2178 300.23 57.9678C297.06 65.7978 294.95 67.2978 286.66 67.6278C285.47 67.6778 283.58 68.1678 283.27 68.9578C280.88 74.9178 278.81 81.0078 276.51 87.4078C281.95 87.4078 286.81 87.3378 291.67 87.4278C298.32 87.5578 302.91 92.1378 303.09 98.7678C303.17 101.728 303.1 104.688 303.1 107.828H311.23V107.818ZM22.51 293.788H67.49C67.49 291.868 67.56 290.248 67.47 288.638C67.27 285.098 65.38 282.948 61.86 282.908C50.62 282.788 39.37 282.788 28.13 282.908C24.61 282.948 22.72 285.098 22.53 288.648C22.44 290.258 22.51 291.878 22.51 293.788ZM361.49 293.918C361.49 291.878 361.56 290.258 361.47 288.648C361.27 285.108 359.38 282.948 355.86 282.918C344.62 282.798 333.37 282.798 322.13 282.918C318.6 282.958 316.71 285.108 316.52 288.648C316.43 290.348 316.5 292.048 316.5 293.918H361.48H361.49ZM72.64 119.588V137.718H80.68V119.588H72.64ZM311.33 137.868V119.618H303.36V137.868H311.33ZM264.5 87.3978C267.06 80.2878 269.25 74.1678 271.55 67.7778H257.5C259.79 74.1878 261.95 80.2478 264.5 87.3978ZM311.44 34.0678H300.57V44.7278H311.44V34.0678Z" fill="white"/>
</svg>
