<?xml version="1.0" encoding="UTF-8"?>
<!DOCTYPE svg PUBLIC "-//W3C//DTD SVG 1.1//EN" "http://www.w3.org/Graphics/SVG/1.1/DTD/svg11.dtd">
<!-- Creator: CorelDRAW 2020 (64-Bit) -->
<svg xmlns="http://www.w3.org/2000/svg" xml:space="preserve" width="210mm" height="297mm" version="1.1" style="shape-rendering:geometricPrecision; text-rendering:geometricPrecision; image-rendering:optimizeQuality; fill-rule:evenodd; clip-rule:evenodd"
viewBox="0 0 21000 29700"
 xmlns:xlink="http://www.w3.org/1999/xlink"
 xmlns:xodm="http://www.corel.com/coreldraw/odm/2003">
 <defs>
  <style type="text/css">

    .fil0 {fill:#434242;fill-rule:nonzero}
    .fil4 {fill:#2B2A29;fill-rule:nonzero}
    .fil3 {fill:#2B4392;fill-rule:nonzero}
    .fil2 {fill:#1391A7;fill-rule:nonzero}
    .fil1 {fill:#E1261F;fill-rule:nonzero}

  </style>
     <clipPath id="id0">
      <rect x="14547.06" y="13850.94" width="4258.73" height="5079.99"/>
     </clipPath>
     <clipPath id="id1">
      <rect x="9297.74" y="12530.14" width="4749.79" height="2015.07"/>
     </clipPath>
     <clipPath id="id2">
      <rect x="2719.14" y="12691.01" width="5875.87" height="2302.92"/>
     </clipPath>
     <clipPath id="id3">
      <rect x="2143.41" y="15053.19" width="6502.4" height="3877.74"/>
     </clipPath>
 </defs>
 <g id="Слой_x0020_1">
  <metadata id="CorelCorpID_0Corel-Layer"/>
  <g id="_2106778311312">
   <g>
    <path class="fil0" fill="#434242" d="M14660.73 13827.57l0 -1082.7 0 -2312.19 1896.88 -299.77 0 2611.96 1311.29 0c-946.31,555.33 -2055.64,871.88 -3208.17,1082.7z"/>
    <path class="fil0" d="M18904.17 18862.48c-212.59,49.32 -466.03,90.05 -760.38,120.07 -297.07,27.88 -572.34,42.88 -828.52,42.88 -648.65,0 -1180.1,-83.62 -1594.36,-248.71 -414.24,-165.09 -705.86,-403.09 -874.84,-711.84 -122.65,-222.99 -185.34,-523.16 -185.34,-904.81l0 -2873.77c250.08,-43.28 499.59,-89 746.79,-141.02 323.49,-68.06 650.52,-147.78 956.77,-254.93 64.49,-22.56 128.95,-45.66 193.32,-69.26l0 3146.01c0,233.68 44.95,408.09 136.27,521.02 156.64,193.67 476.94,289.45 948.44,289.45 220.75,0 436.05,-12.86 651.37,-40.74 215.28,-27.88 419.69,-62.17 610.48,-102.9l0 1228.55z"/>
    <path class="fil0" d="M10939.32 14722.97l0 4106.54 -1514.13 0 0 -3907.07c196.72,-28.27 393.57,-55.45 590.4,-81.77 307.45,-41.1 615.43,-80.16 923.73,-117.7z"/>
    <path class="fil0" d="M9425.19 13022.45l393.66 -188.28c1109.18,-469.53 2635.97,-567.41 4338.04,-131.16 -110.41,349.73 -220.82,699.46 -331.23,1049.19 -1083.92,-259.39 -2124.37,-266.25 -2886.34,-33.81l0 584.87c-505.59,59.3 -1010.85,124.03 -1514.13,196.8l0 -1477.61z"/>
    <path class="fil0" d="M6865.67 14962.14l0 -78.43c0,-142.44 -29.24,-280.57 -90.3,-412.22 -58.47,-133.8 -154.05,-250.34 -286.87,-353.96 -132.8,-103.6 -305.4,-183.45 -517.87,-246.05 -212.5,-60.42 -472.75,-90.64 -778.22,-90.64 -371.78,0 -746.24,32.38 -1120.73,99.29 -371.85,66.89 -778.22,168.33 -1213.76,302.16l0 -1169.8c379.8,-133.81 780.83,-237.4 1205.78,-308.6 427.58,-73.4 871.13,-110.09 1338.56,-114.41 549.77,0 1033.14,53.97 1444.81,164.02 411.67,110.09 759.57,261.16 1035.8,453.24 278.86,192.11 488.66,418.71 626.79,679.87 116.14,223.94 183.44,465.31 200.27,722.83 -102.47,16.56 -204.81,33.52 -307.02,50.89 -515.51,87.61 -1029.99,185.97 -1537.24,301.81z"/>
    <path class="fil0" d="M2209.62 16885.84c-1.5,-31.6 134.72,-518.67 239.29,-707.15 148.72,-261.17 355.88,-481.3 618.83,-662.61 265.56,-181.29 581.63,-319.42 950.82,-414.37 366.48,-94.96 775.49,-142.45 1221.7,-142.45 326.64,0 626.77,17.25 902.99,49.63 115.51,14.58 225.33,30.32 329.26,47.06 -837.83,92.4 -3651.97,1195.59 -4262.89,1829.89zm16407.79 -4140.97l175.02 0 0 934.25 -1953.38 0c429.48,-170.05 849.44,-364.15 1234.81,-583.55 164.7,-93.77 365.83,-216.57 543.55,-350.7z"/>
    <path class="fil0" d="M7017.03 18218.25l-31.86 0c-103.6,88.47 -225.74,179.14 -371.83,271.92 -146.06,92.82 -313.4,181.31 -499.33,263.32 -185.88,82.01 -393.04,146.77 -621.47,196.42 -228.4,49.63 -475.36,75.53 -740.99,75.53 -358.5,0 -693.17,-45.34 -1003.92,-135.97 -313.38,-90.65 -578.97,-222.31 -802.07,-392.8 -223.11,-170.5 -398.35,-375.55 -525.85,-619.43 -63.18,-119.81 -110.69,-247.05 -142.57,-381.18l196.02 -143.26c175.3,-128.12 350.45,-256.38 525.76,-384.5 1073.2,-753.24 2399.26,-1263.62 3774.81,-1571.84 639.2,-143.21 1287.95,-262.49 1940.39,-366.48l0 2018.49c0,405.73 5.34,753.24 15.96,1044.6 10.62,289.19 21.26,548.21 31.88,776.97l-1665.25 0 -79.68 -651.79zm-151.36 -1959.72c-175.31,-34.52 -377.17,-64.74 -605.55,-92.8 -228.41,-28.05 -459.49,-41.02 -690.54,-41.02 -451.5,0 -807.37,73.4 -1067.68,217.99 -262.94,146.77 -393.04,369.07 -393.04,669.09 0,138.1 29.22,258.96 90.28,362.56 58.42,103.6 138.1,189.93 239.02,256.83 100.92,66.91 220.45,118.72 353.25,153.24 135.46,32.38 278.89,49.63 427.59,49.63 185.92,0 363.86,-19.41 528.51,-60.4 164.68,-38.86 318.72,-90.65 456.83,-151.09 140.76,-60.41 265.58,-129.48 377.14,-205.02 111.57,-77.71 207.15,-151.09 284.19,-222.3l0 -936.71z"/>
   </g>
   <g>
    <path class="fil1" d="M14549.87 13892.72l0 -1049.01 0 -2240.25 1900.2 -290.44 0 2530.69 1313.58 0c-947.96,538.06 -2059.23,844.75 -3213.78,1049.01z"/>
    <g style="clip-path:url(#id0)">
     <image x="14547.06" y="13850.94" width="4258.73" height="5079.99" xlink:href="логотип Tandem ART итог_Images\логотип Tandem ART итог_ImgID1.png"/>
    </g>
    <path class="fil2" d="M10821.95 14760.26l0 3978.78 -1516.78 0 0 -3785.51c197.06,-27.39 394.25,-53.72 591.43,-79.22 307.99,-39.83 616.5,-77.67 925.35,-114.05z"/>
    <g style="clip-path:url(#id1)">
     <image x="9297.74" y="12530.14" width="4749.79" height="2015.07" xlink:href="логотип Tandem ART итог_Images\логотип Tandem ART итог_ImgID2.png"/>
    </g>
    <g style="clip-path:url(#id2)">
     <image x="2719.14" y="12691.01" width="5875.87" height="2302.92" xlink:href="логотип Tandem ART итог_Images\логотип Tandem ART итог_ImgID3.png"/>
    </g>
    <path class="fil3" d="M2098.09 17123.02c-1.51,-30.65 -2.25,-61.63 -2.25,-92.88 0,-319.94 74.49,-604.33 220.83,-859.44 148.98,-253.05 356.51,-466.33 619.92,-642 266.02,-175.65 582.64,-309.49 952.48,-401.48 367.12,-92 776.85,-138.02 1223.84,-138.02 327.21,0 627.86,16.72 904.57,48.09 115.72,14.12 225.73,29.38 329.84,45.59 -846.36,204.03 -1680.73,463.56 -2423.65,839.47 -564.28,267.57 -1083.64,580.47 -1540.44,953.41 -98.5,80.41 -193.09,162.96 -285.14,247.26zm16415.39 -4279.31l175.33 0 0 905.19 -1956.81 0c430.24,-164.76 850.93,-352.83 1236.97,-565.4 165,-90.86 366.47,-209.84 544.51,-339.79z"/>
    <g style="clip-path:url(#id3)">
     <image x="2143.41" y="15053.19" width="6502.4" height="3877.74" xlink:href="логотип Tandem ART итог_Images\логотип Tandem ART итог_ImgID4.png"/>
    </g>
   </g>
   <g>
    <path class="fil4" d="M2309.33 10041.51l315.62 0 0 469.82 534.39 0 0 297.68 -534.39 0 0 789.04c0,134.49 27.48,236.1 82.48,304.84 55.6,69.34 126.13,104.01 211.61,104.01 153.03,0 286.92,-41.84 401.08,-126.12l71.74 305.44c-55.01,34.08 -126.14,62.76 -212.8,86.68 -86.68,23.31 -170.95,35.26 -252.85,35.26 -177.53,0 -325.18,-56.78 -441.75,-170.35 -116.54,-113.57 -175.13,-275.57 -175.13,-486.57l0 -1609.73z"/>
    <path class="fil4" d="M5020.72 12279.48l0 -882.89c0,-122.53 -23.92,-231.31 -72.33,-325.77 -47.81,-94.44 -115.36,-167.36 -202.04,-218.17 -86.07,-50.81 -183.5,-75.91 -292.31,-75.91 -109.37,0 -207.41,25.69 -294.07,77.09 -86.68,51.43 -154.23,123.14 -203.25,215.81 -48.41,92.64 -72.92,197.85 -72.92,316.79 0,121.35 25.1,229.55 75.32,323.99 50.2,95.04 120.15,168.57 209.21,221.18 89.65,52.6 189.49,78.88 299.48,78.88 153.61,0 301.85,-53.78 445.3,-161.98l-125.52 398.1c-91.44,41.24 -209.8,61.56 -355.06,61.56 -111.78,0 -219.96,-21.52 -324.58,-65.14 -104.61,-43.65 -197.85,-105.8 -279.74,-186.52 -81.9,-80.69 -146.45,-178.12 -193.07,-291.08 -47.23,-113.59 -70.53,-237.32 -70.53,-372.41 0,-130.9 22.1,-253.45 66.34,-365.82 43.64,-112.98 105.79,-209.82 185.31,-292.3 80.08,-81.9 173.93,-144.66 282.74,-189.49 109.37,-44.23 226.53,-66.34 352.07,-66.34 111.17,0 218.17,19.12 320.99,57.39 102.21,38.25 193.66,93.23 273.76,164.97 79.5,71.72 144.66,156.61 194.27,254.65 42.44,83.07 69.33,167.35 80.1,252.24 10.75,85.48 16.15,194.86 16.15,328.77l0 742.4 -315.62 0z"/>
    <path class="fil4" d="M5720.72 12279.48l0 -964.76c0,-174.57 31.68,-324.6 95.03,-450.12 63.37,-125.52 151.84,-221.16 266,-286.91 114.19,-65.75 245.08,-98.63 392.14,-98.63 147.04,0 277.34,32.88 390.91,98.02 113.58,65.16 202.05,161.39 264.81,287.52 62.76,126.72 93.84,276.76 93.84,450.12l0 964.76 -312.03 0 0 -1022.15c0,-92.67 -19.11,-174.54 -56.77,-246.87 -38.25,-71.74 -90.27,-127.33 -157.22,-166.79 -66.34,-40.04 -141.05,-59.76 -224.15,-59.76 -127.31,0 -232.52,43.62 -315.62,131.5 -83.07,87.86 -124.93,202.05 -124.93,341.92l0 1022.15 -312.01 0z"/>
    <path class="fil4" d="M9307.24 9697.19l0 1557.15c0,132.71 -5.39,241.49 -16.14,326.36 -10.77,84.89 -37.66,167.97 -80.11,250.45 -50.2,100.45 -115.36,186.51 -196.05,258.84 -80.11,71.72 -171.55,127.32 -274.97,166.77 -102.82,38.86 -210.41,58.59 -321.6,58.59 -167.96,0 -319.2,-39.46 -454.87,-117.77 -136.3,-78.29 -242.7,-188.28 -319.79,-329.36 -77.12,-141.07 -115.39,-299.47 -115.39,-475.21 0,-123.14 22.13,-240.3 66.37,-351.46 44.82,-111.19 106.99,-208.62 186.49,-292.31 80.1,-83.69 173.95,-148.85 281.53,-196.06 107,-47.23 220.57,-70.54 340.13,-70.54 130.92,0 249.25,20.32 355.66,61.56l125.52 397.51c-146.45,-107.6 -296.48,-161.39 -448.89,-161.39 -111.78,0 -212.2,25.69 -301.29,76.51 -88.45,51.42 -157.78,123.14 -208.01,216.39 -49.61,93.24 -74.7,198.44 -74.7,316.8 0,124.34 24.48,233.72 73.5,328.76 49.02,94.46 117.18,167.38 204.45,218.78 87.27,50.81 185.9,76.52 295.87,76.52 109.4,0 206.83,-25.71 292.89,-77.11 86.1,-51.4 153.64,-124.34 201.46,-218.19 48.41,-94.43 72.33,-203.22 72.33,-325.77l0 -1695.82 315.61 0z"/>
    <path class="fil4" d="M9609.14 11389.43c0,-155.41 40.04,-304.26 120.15,-445.33 79.49,-141.06 188.28,-254.04 325.77,-338.32 137.47,-84.3 286.91,-126.72 447.1,-126.72 121.96,0 237.91,24.51 346.7,73.51 109.4,49.02 205.04,115.97 286.93,200.25 81.88,84.89 146.45,182.32 193.07,292.9 46.62,109.99 69.92,224.76 69.92,343.71 0,48.4 -3.58,93.84 -10.74,136.88l-1434.6 0c28.68,141.66 94.43,257.64 196.64,346.7 102.24,89.06 219.39,133.89 352.08,133.89 192.47,0 350.28,-89.66 473.42,-268.98l233.13 218.16c-69.95,97.45 -166.17,181.14 -288.11,251.07 -122.55,69.94 -261.81,104.61 -418.44,104.61 -161.98,0 -312.01,-42.44 -449.5,-126.72 -137.47,-84.3 -245.67,-197.26 -325.17,-338.33 -78.9,-141.08 -118.35,-293.49 -118.35,-457.28zm893.02 -612.69c-133.3,0 -250.45,44.22 -352.67,133.3 -101.62,89.06 -167.37,203.81 -196.05,343.71l1101.05 0c-17.94,-92.67 -53.2,-175.15 -106.41,-247.48 -52.6,-71.74 -118.33,-127.93 -196.06,-168.56 -78.29,-40.65 -161.39,-60.97 -249.86,-60.97z"/>
    <path class="fil4" d="M12399.46 10479.06c227.14,0 407.67,90.85 540.96,272.56 139.27,-181.71 319.79,-272.56 542.15,-272.56 209.82,0 379.58,68.73 509.29,206.81 129.11,138.08 193.66,328.76 193.66,571.46l0 1022.15 -312.01 0 0 -1079.54c0,-125.52 -36.46,-226.55 -109.4,-302.46 -72.33,-75.91 -166.18,-113.57 -281.54,-113.57 -112.37,0 -203.83,37.66 -276.16,113.57 -71.72,75.91 -107.59,176.94 -107.59,302.46l0 1079.54 -312.03 0 0 -1079.54c0,-125.52 -36.46,-226.55 -108.79,-302.46 -72.33,-75.91 -164.97,-113.57 -278.54,-113.57 -114.19,0 -206.83,37.66 -279.16,113.57 -72.33,75.91 -108.2,176.94 -108.2,302.46l0 1079.54 -312.01 0 0 -1022.15c0,-244.49 63.96,-435.17 191.87,-572.64 128.51,-136.9 297.68,-205.63 507.5,-205.63z"/>
   </g>
   <path class="fil4" d="M16806.52 12493.18l0 -758.46 92.69 0 0 288.47c42.83,-40.57 90.94,-60.93 144.33,-60.93 64.07,0 114.11,21.06 150.29,63.37 35.98,42.32 54.06,102.89 54.06,182.08l0 285.47 -92.71 0 0 -301.11c0,-29.49 -4.91,-54.77 -14.57,-75.48 -9.65,-20.73 -23.87,-36.52 -42.66,-47.42 -18.96,-10.88 -41.24,-16.32 -67.06,-16.32 -24.93,0 -47.41,6.31 -67.42,19.14 -20.01,12.82 -35.82,31.26 -47.23,55.13 -11.42,24.06 -17.03,52.32 -17.03,84.63l0 281.43 -92.69 0zm960.54 -1.05l0 -259.32c0,-36 -7.03,-67.94 -21.25,-95.68 -14.05,-27.74 -33.89,-49.17 -59.33,-64.09 -25.3,-14.92 -53.92,-22.29 -85.88,-22.29 -32.11,0 -60.9,7.54 -86.37,22.64 -25.45,15.11 -45.29,36.17 -59.68,63.39 -14.22,27.22 -21.43,58.11 -21.43,93.04 0,35.65 7.38,67.43 22.13,95.18 14.74,27.91 35.28,49.5 61.45,64.94 26.32,15.47 55.64,23.18 87.94,23.18 45.14,0 88.67,-15.8 130.81,-47.58l-36.87 116.94c-26.87,12.12 -61.63,18.08 -104.29,18.08 -32.83,0 -64.62,-6.33 -95.33,-19.13 -30.74,-12.83 -58.11,-31.09 -82.16,-54.79 -24.07,-23.7 -43.04,-52.32 -56.71,-85.5 -13.87,-33.36 -20.73,-69.71 -20.73,-109.38 0,-38.45 6.51,-74.45 19.48,-107.45 12.83,-33.19 31.09,-61.63 54.44,-85.85 23.53,-24.06 51.1,-42.49 83.03,-55.67 32.14,-12.99 66.54,-19.48 103.42,-19.48 32.66,0 64.09,5.61 94.28,16.86 30.04,11.23 56.89,27.38 80.41,48.46 23.35,21.05 42.49,46 57.06,74.79 12.48,24.4 20.38,49.15 23.53,74.08 3.17,25.12 4.74,57.25 4.74,96.57l0 218.06 -92.69 0z"/>
   <path class="fil4" d="M2144.6 19714.64c0,-51.82 15.55,-100.36 46.77,-145.53 31.26,-45.05 73.07,-81.09 125.78,-107.92 52.54,-26.8 108.81,-40.22 168.8,-40.22 35.89,0 69.94,4.44 102.1,13.16 32.2,8.84 61.25,20.94 87.38,36.3 26.1,15.51 49.43,33.6 69.92,54.42l-69.92 45.3c-51.62,-53.1 -114.86,-79.66 -189.48,-79.66 -45.07,0 -86.73,10.28 -124.98,30.71 -38.4,20.45 -68.88,47.91 -91.24,82.27 -22.55,34.49 -33.76,71.58 -33.76,111.17 0,36.43 11.36,71.45 33.91,105.16 22.54,33.57 52.99,60.66 91.55,81.22 38.73,20.44 80.06,30.71 124.52,30.71 43.05,0 83.29,-9.24 120.76,-27.85 37.46,-18.48 67.15,-44.63 89.23,-78.49l73.53 45.31c-21.3,26.67 -46.33,49.85 -75.23,69.77 -28.75,19.77 -60.95,35.13 -96.23,46.07 -35.43,10.81 -72.74,16.27 -112.06,16.27 -59.99,0 -116.26,-13.15 -168.8,-39.45 -52.71,-26.15 -94.52,-61.43 -125.78,-105.68 -31.22,-44.26 -46.77,-91.91 -46.77,-143.04zm767.89 278.02l0 -340.63c0,-32.68 2.21,-59.75 6.4,-81.48 4.17,-21.63 13.04,-41.92 26.26,-60.54 13.37,-19.13 29.69,-35.41 48.97,-49.06 19.4,-13.54 41.03,-23.83 64.64,-31 23.79,-7.01 49.44,-10.53 76.81,-10.53 39.93,0 76.76,8.2 110.67,24.73 34.03,16.41 60.92,38.67 80.67,66.65 19.73,27.98 29.53,58.44 29.53,91.36 0,28 -7.14,54.67 -21.32,79.8 -14.13,25.12 -34.31,45.94 -60.27,62.73 -26.12,16.67 -56.12,27.2 -90,31.51l160.41 170.25 -70.89 46.21 -227.73 -232.87 -16.62 -92.01c12.29,13.91 28.59,24.86 48.82,32.79 20.34,7.82 37.29,11.84 50.96,11.84 43.23,0 76.64,-10.14 100.12,-30.19 23.46,-20.19 35.13,-47.38 35.13,-81.61 0,-20.06 -5.75,-38.54 -17.41,-55.45 -11.67,-17.06 -27.53,-30.34 -47.87,-40.1 -20.23,-9.75 -42.29,-14.57 -66.38,-14.57 -39.81,0 -71.52,11.31 -95.44,33.83 -23.95,22.53 -35.92,53.76 -35.92,93.48l0 374.86 -89.54 0zm590.88 -562.31l333.1 0 0 69.51 -244.49 0 0 164.79 225.83 0 0 69.49 -225.83 0 0 75c0,36.7 11.51,64.94 34.34,84.6 23,19.64 55.99,29.41 99.17,29.41l110.98 0 0 69.51 -96.21 0c-79.91,0 -139.28,-16.02 -178.28,-48.17 -39.01,-32 -58.61,-81.09 -58.61,-147.08l0 -367.06zm877.97 562.31l0 -203.84 -287.26 0 0 203.84 -89.54 0 0 -353c0,-67.82 21.47,-121.45 64.2,-160.62 42.93,-39.19 99.2,-58.83 168.97,-58.83 45.55,0 85.96,8.72 121.42,26.15 35.25,17.58 62.78,42.95 82.37,76.28 19.58,33.31 29.39,72.24 29.39,117.02l0 353 -89.55 0zm-143.47 -502.96c-46.16,0 -81.75,12.89 -106.48,38.53 -24.86,25.65 -37.31,63.4 -37.31,113.12l0 76.41 287.26 0 0 -76.41c0,-49.72 -12.43,-87.47 -37.29,-113.12 -24.72,-25.64 -60.16,-38.53 -106.18,-38.53zm492.8 502.96l0 -492.8 -172.4 0 0 -69.51 433.35 0 0 69.51 -171.43 0 0 492.8 -89.52 0zm410.85 0l0 -562.31 88.59 0 0 562.31 -88.59 0zm204.6 -562.31l89.52 0 174.24 475.63 174.43 -475.63 89.67 0 -184.65 499.83c-9.15,25.12 -19.9,43.6 -32,55.18 -12.15,11.6 -28.01,17.45 -47.45,17.45 -19.55,0 -35.26,-5.72 -47.23,-17.32 -11.97,-11.58 -22.7,-30.06 -31.89,-55.31l-184.64 -499.83zm634.71 0l333.09 0 0 69.51 -244.49 0 0 164.79 225.83 0 0 69.49 -225.83 0 0 75c0,36.7 11.51,64.94 34.34,84.6 23,19.64 55.99,29.41 99.18,29.41l110.97 0 0 69.51 -96.21 0c-79.9,0 -139.28,-16.02 -178.27,-48.17 -39.04,-32 -58.61,-81.09 -58.61,-147.08l0 -367.06zm1023.43 562.31l0 -340.63c0,-32.68 2.19,-59.75 6.4,-81.48 4.18,-21.63 13.05,-41.92 26.26,-60.54 13.37,-19.13 29.69,-35.41 48.98,-49.06 19.4,-13.54 41.02,-23.83 64.64,-31 23.79,-7.01 49.43,-10.53 76.8,-10.53 39.94,0 76.77,8.2 110.65,24.73 34.05,16.41 60.95,38.67 80.69,66.65 19.73,27.98 29.54,58.44 29.54,91.36 0,30.08 -8.26,59.11 -24.91,87.09 -16.6,27.85 -39.29,50.25 -67.74,67.15 -28.61,16.93 -59.55,25.39 -92.97,25.39 -50.96,0 -90.74,-8.59 -119.38,-25.78l-16.01 -89.67c12.14,13.41 28.46,24.2 48.64,32.28 20.23,8.06 40.92,12.11 61.59,12.11 22.06,0 42.27,-4.96 60.46,-14.84 18.33,-9.76 32.79,-23.31 43.19,-40.24 10.44,-17.03 15.71,-35.38 15.71,-54.91 0,-20.19 -5.73,-38.67 -17.39,-55.58 -11.67,-17.06 -27.53,-30.34 -47.89,-40.1 -20.2,-9.75 -42.27,-14.57 -66.38,-14.57 -39.78,0 -71.5,11.31 -95.42,33.83 -23.94,22.53 -35.91,53.76 -35.91,93.48l0 374.86 -89.55 0zm590.86 0l0 -340.63c0,-32.68 2.21,-59.75 6.41,-81.48 4.17,-21.63 13.04,-41.92 26.27,-60.54 13.35,-19.13 29.69,-35.41 48.96,-49.06 19.42,-13.54 41.02,-23.83 64.64,-31 23.79,-7.01 49.43,-10.53 76.8,-10.53 39.94,0 76.77,8.2 110.67,24.73 34.04,16.41 60.93,38.67 80.67,66.65 19.73,27.98 29.54,58.44 29.54,91.36 0,28 -7.14,54.67 -21.32,79.8 -14.14,25.12 -34.32,45.94 -60.27,62.73 -26.13,16.67 -56.12,27.2 -90,31.51l160.4 170.25 -70.88 46.21 -227.74 -232.87 -16.62 -92.01c12.3,13.91 28.6,24.86 48.82,32.79 20.34,7.82 37.29,11.84 50.97,11.84 43.23,0 76.65,-10.14 100.11,-30.19 23.46,-20.19 35.13,-47.38 35.13,-81.61 0,-20.06 -5.75,-38.54 -17.41,-55.45 -11.67,-17.06 -27.53,-30.34 -47.86,-40.1 -20.23,-9.75 -42.29,-14.57 -66.39,-14.57 -39.8,0 -71.52,11.31 -95.44,33.83 -23.94,22.53 -35.91,53.76 -35.91,93.48l0 374.86 -89.55 0zm658.04 -282.07c0,28.12 6.53,55.58 19.42,82.27 13.08,26.81 31.11,50.64 54.11,71.46 23.15,20.95 49.87,37.35 80.19,49.45 30.32,11.98 62.35,17.96 96.08,17.96 34.49,0 66.99,-5.98 97.62,-17.96 30.61,-12.1 57.17,-28.5 79.87,-49.32 22.69,-20.82 40.43,-44.52 52.86,-71.19 12.61,-26.57 18.81,-54.16 18.81,-82.67 0,-28.11 -6.38,-55.57 -18.96,-82.26 -12.58,-26.68 -30.32,-50.51 -53.17,-71.2 -22.83,-20.84 -49.26,-37.09 -79.56,-48.95 -30.17,-11.84 -62.68,-17.69 -97.47,-17.69 -45.24,0 -86.9,10.15 -125.31,30.45 -38.23,20.31 -68.55,47.51 -90.92,81.48 -22.39,33.99 -33.57,70.03 -33.57,108.17zm-91.4 0.79c0,-50.64 15.71,-98.41 46.94,-143.19 31.24,-44.76 73.23,-80.44 125.77,-107.13 52.69,-26.67 108.81,-40.09 168.64,-40.09 46.46,0 90.46,7.56 131.79,22.79 41.5,15.22 77.9,36.31 109.29,63.52 31.24,27.07 55.64,58.31 73.22,93.33 17.39,35.14 26.11,71.97 26.11,110.77 0,38.78 -8.72,75.76 -26.11,110.89 -17.58,35.01 -41.81,66.12 -72.91,93.34 -31.09,27.07 -67.61,48.41 -109.27,63.9 -41.66,15.48 -85.66,23.3 -132.12,23.3 -45.22,0 -88.6,-7.55 -130.11,-22.65 -41.35,-15.22 -78.03,-36.31 -110.03,-63.66 -31.9,-27.19 -56.76,-58.56 -74.62,-93.71 -17.74,-35.28 -26.59,-72.37 -26.59,-111.41zm1154.35 -291.17c46.47,0 90.44,7.67 132.12,23.02 41.5,15.36 77.88,36.7 109.11,63.79 31.26,27.07 55.49,58.04 73.08,93.19 17.38,35.15 26.1,71.85 26.1,110.38 0,52.19 -15.23,100.62 -45.55,145.4 -30.29,44.9 -71.65,80.44 -123.73,106.61 -52.23,26.28 -109.11,39.43 -171.13,39.43 -75.39,0 -142.54,-16.67 -201.3,-49.98l-21.6 -109.21c15.55,16.15 31.87,30.32 48.95,42.69 17.13,12.23 40.26,22.91 69.51,31.89 29.05,8.98 63.85,13.55 104.44,13.55 34.34,0 66.69,-5.99 97.15,-17.98 30.47,-11.97 57.19,-28.38 79.88,-49.2 22.85,-20.82 40.44,-44.52 53.02,-71.19 12.58,-26.56 18.96,-53.89 18.96,-81.87 0,-28.91 -6.38,-56.63 -18.96,-83.45 -12.58,-26.81 -30.17,-50.49 -53.02,-71.33 -22.69,-20.81 -49.26,-36.96 -79.56,-48.67 -30.47,-11.73 -62.98,-17.58 -97.47,-17.58 -27.2,0 -55.35,4.43 -84.25,13.15 -28.91,8.72 -56.28,22.39 -81.77,40.74 -25.47,18.35 -46.01,41.66 -61.56,69.77 -15.51,28.12 -23.29,60.54 -23.29,97.37l0 281.93 -89.54 0 0 -282.07c0,-47.11 10.73,-89.3 32.03,-126.39 21.27,-37.09 49.26,-67.68 83.62,-91.88 34.49,-24.09 71.5,-42.05 111.12,-54.15 39.63,-11.97 77.58,-17.96 113.64,-17.96zm585.42 10.14l0 349.89c0,49.58 12.46,87.33 37.31,112.98 24.73,25.64 60.32,38.51 106.48,38.51 46.02,0 81.46,-12.87 106.18,-38.51 24.86,-25.65 37.29,-63.4 37.29,-112.98l0 -349.89 89.55 0 0 353.77c0,44.52 -9.81,83.45 -29.54,116.63 -19.59,33.21 -47.12,58.46 -82.38,75.89 -35.3,17.46 -75.71,26.17 -121.26,26.17 -45.54,0 -85.96,-8.71 -121.24,-26.17 -35.28,-17.43 -62.8,-42.68 -82.39,-75.89 -19.71,-33.18 -29.52,-72.11 -29.52,-116.63l0 -353.77 89.52 0zm532.12 284.29c0,-51.82 15.56,-100.36 46.77,-145.53 31.26,-45.05 73.08,-81.09 125.77,-107.92 52.55,-26.8 108.8,-40.22 168.81,-40.22 35.89,0 69.95,4.44 102.11,13.16 32.2,8.84 61.25,20.94 87.35,36.3 26.13,15.51 49.44,33.6 69.95,54.42l-69.95 45.3c-51.59,-53.1 -114.86,-79.66 -189.46,-79.66 -45.09,0 -86.74,10.28 -124.97,30.71 -38.41,20.45 -68.88,47.91 -91.27,82.27 -22.52,34.49 -33.73,71.58 -33.73,111.17 0,36.43 11.36,71.45 33.9,105.16 22.53,33.57 53,60.66 91.56,81.22 38.71,20.44 80.06,30.71 124.51,30.71 43.04,0 83.3,-9.24 120.76,-27.85 37.47,-18.48 67.15,-44.63 89.24,-78.49l73.51 45.31c-21.28,26.67 -46.32,49.85 -75.24,69.77 -28.75,19.77 -60.92,35.13 -96.2,46.07 -35.46,10.81 -72.75,16.27 -112.07,16.27 -60.01,0 -116.26,-13.15 -168.81,-39.45 -52.69,-26.15 -94.51,-61.43 -125.77,-105.68 -31.21,-44.26 -46.77,-91.91 -46.77,-143.04zm900.34 278.02l0 -492.8 -172.38 0 0 -69.51 433.36 0 0 69.51 -171.44 0 0 492.8 -89.54 0zm410.88 0l0 -562.31 88.58 0 0 562.31 -88.58 0zm344.48 -282.07c0,28.12 6.55,55.58 19.44,82.27 13.06,26.81 31.08,50.64 54.09,71.46 23.17,20.95 49.89,37.35 80.19,49.45 30.32,11.98 62.34,17.96 96.07,17.96 34.5,0 67,-5.98 97.63,-17.96 30.6,-12.1 57.19,-28.5 79.88,-49.32 22.7,-20.82 40.44,-44.52 52.85,-71.19 12.6,-26.57 18.81,-54.16 18.81,-82.67 0,-28.11 -6.36,-55.57 -18.97,-82.26 -12.58,-26.68 -30.32,-50.51 -53.17,-71.2 -22.82,-20.84 -49.23,-37.09 -79.56,-48.95 -30.16,-11.84 -62.67,-17.69 -97.47,-17.69 -45.22,0 -86.87,10.15 -125.28,30.45 -38.25,20.31 -68.57,47.51 -90.94,81.48 -22.39,33.99 -33.57,70.03 -33.57,108.17zm-91.38 0.79c0,-50.64 15.71,-98.41 46.92,-143.19 31.26,-44.76 73.23,-80.44 125.76,-107.13 52.69,-26.67 108.81,-40.09 168.67,-40.09 46.44,0 90.44,7.56 131.79,22.79 41.5,15.22 77.88,36.31 109.27,63.52 31.26,27.07 55.64,58.31 73.22,93.33 17.41,35.14 26.13,71.97 26.13,110.77 0,38.78 -8.72,75.76 -26.13,110.89 -17.58,35.01 -41.81,66.12 -72.92,93.34 -31.08,27.07 -67.61,48.41 -109.27,63.9 -41.65,15.48 -85.65,23.3 -132.09,23.3 -45.24,0 -88.63,-7.55 -130.13,-22.65 -41.36,-15.22 -78.03,-36.31 -110.04,-63.66 -31.87,-27.19 -56.75,-58.56 -74.62,-93.71 -17.74,-35.28 -26.56,-72.37 -26.56,-111.41zm926.75 281.28l-89.52 0 0 -353.78c0,-67.44 21.47,-120.8 64.2,-159.97 42.9,-39.19 99.18,-58.7 168.97,-58.7 45.55,0 85.94,8.72 121.24,26.15 35.28,17.45 62.8,42.71 82.38,75.89 19.72,33.18 29.53,72.11 29.53,116.63l0 353.78 -89.52 0 0 -349.87c0,-49.61 -12.45,-87.36 -37.31,-112.98 -24.73,-25.65 -60.16,-38.54 -106.17,-38.54 -46.18,0 -81.76,12.89 -106.49,38.54 -24.86,25.62 -37.31,63.37 -37.31,112.98l0 349.87zm1054.39 -278.02c0,-51.82 15.55,-100.36 46.77,-145.53 31.26,-45.05 73.07,-81.09 125.76,-107.92 52.56,-26.8 108.81,-40.22 168.82,-40.22 35.89,0 69.94,4.44 102.1,13.16 32.2,8.84 61.25,20.94 87.36,36.3 26.12,15.51 49.43,33.6 69.94,54.42l-69.94 45.3c-51.6,-53.1 -114.86,-79.66 -189.46,-79.66 -45.09,0 -86.75,10.28 -124.98,30.71 -38.4,20.45 -68.88,47.91 -91.27,82.27 -22.52,34.49 -33.73,71.58 -33.73,111.17 0,36.43 11.36,71.45 33.91,105.16 22.52,33.57 52.99,60.66 91.55,81.22 38.71,20.44 80.06,30.71 124.52,30.71 43.03,0 83.29,-9.24 120.75,-27.85 37.47,-18.48 67.16,-44.63 89.24,-78.49l73.51 45.31c-21.28,26.67 -46.31,49.85 -75.23,69.77 -28.75,19.77 -60.93,35.13 -96.21,46.07 -35.45,10.81 -72.74,16.27 -112.06,16.27 -60.01,0 -116.26,-13.15 -168.82,-39.45 -52.69,-26.15 -94.5,-61.43 -125.76,-105.68 -31.22,-44.26 -46.77,-91.91 -46.77,-143.04zm835.04 -4.05c0,28.12 6.55,55.58 19.44,82.27 13.07,26.81 31.09,50.64 54.09,71.46 23.18,20.95 49.89,37.35 80.19,49.45 30.32,11.98 62.35,17.96 96.1,17.96 34.47,0 66.98,-5.98 97.6,-17.96 30.61,-12.1 57.19,-28.5 79.89,-49.32 22.7,-20.82 40.43,-44.52 52.84,-71.19 12.61,-26.57 18.81,-54.16 18.81,-82.67 0,-28.11 -6.36,-55.57 -18.96,-82.26 -12.56,-26.68 -30.32,-50.51 -53.17,-71.2 -22.83,-20.84 -49.24,-37.09 -79.56,-48.95 -30.15,-11.84 -62.65,-17.69 -97.45,-17.69 -45.24,0 -86.9,10.15 -125.3,30.45 -38.25,20.31 -68.55,47.51 -90.94,81.48 -22.39,33.99 -33.58,70.03 -33.58,108.17zm-91.38 0.79c0,-50.64 15.71,-98.41 46.93,-143.19 31.26,-44.76 73.22,-80.44 125.76,-107.13 52.71,-26.67 108.81,-40.09 168.66,-40.09 46.47,0 90.44,7.56 131.79,22.79 41.51,15.22 77.9,36.31 109.27,63.52 31.26,27.07 55.64,58.31 73.23,93.33 17.41,35.14 26.12,71.97 26.12,110.77 0,38.78 -8.71,75.76 -26.12,110.89 -17.59,35.01 -41.82,66.12 -72.9,93.34 -31.11,27.07 -67.63,48.41 -109.29,63.9 -41.66,15.48 -85.63,23.3 -132.1,23.3 -45.24,0 -88.62,-7.55 -130.13,-22.65 -41.35,-15.22 -78.03,-36.31 -110.03,-63.66 -31.87,-27.19 -56.73,-58.56 -74.6,-93.71 -17.74,-35.28 -26.59,-72.37 -26.59,-111.41zm838.17 281.28l0 -375.65c0,-39.95 8.87,-74.84 26.59,-104.66 17.87,-29.93 42.59,-52.71 74.29,-68.46 31.72,-15.75 67.94,-23.68 108.81,-23.68 67.15,0 121.87,22.89 164.14,68.72 13.07,-14.59 28.29,-27.08 45.7,-37.48 17.41,-10.42 36.05,-18.24 56.12,-23.44 20.06,-5.2 40.87,-7.8 62.33,-7.8 41.17,0 77.57,7.93 109.42,23.68 31.72,15.75 56.42,38.4 73.99,68.07 17.73,29.69 26.58,64.7 26.58,105.05l0 375.65 -88.6 0 0 -375.52c0,-41.13 -10.55,-72.5 -31.72,-94.11 -20.97,-21.73 -50.96,-32.54 -89.67,-32.54 -38.23,0 -67.77,10.81 -88.76,32.54 -20.97,21.61 -31.39,52.98 -31.39,94.11l0 375.52 -87.66 0 0 -375.52c0,-41.13 -10.58,-72.5 -31.57,-94.11 -20.97,-21.73 -50.66,-32.54 -88.91,-32.54 -38.56,0 -68.24,10.81 -88.91,32.54 -20.84,21.61 -31.24,52.98 -31.24,94.11l0 375.52 -89.54 0zm928.63 0l0 -340.63c0,-32.68 2.18,-59.75 6.38,-81.48 4.17,-21.63 13.04,-41.92 26.28,-60.54 13.34,-19.13 29.68,-35.41 48.95,-49.06 19.42,-13.54 41.05,-23.83 64.64,-31 23.81,-7.01 49.44,-10.53 76.81,-10.53 39.93,0 76.78,8.2 110.66,24.73 34.04,16.41 60.93,38.67 80.68,66.65 19.72,27.98 29.53,58.44 29.53,91.36 0,30.08 -8.23,59.11 -24.88,87.09 -16.62,27.85 -39.32,50.25 -67.74,67.15 -28.62,16.93 -59.57,25.39 -92.97,25.39 -50.99,0 -90.77,-8.59 -119.39,-25.78l-16.01 -89.67c12.13,13.41 28.47,24.2 48.65,32.28 20.21,8.06 40.89,12.11 61.56,12.11 22.09,0 42.29,-4.96 60.47,-14.84 18.35,-9.76 32.79,-23.31 43.21,-40.24 10.44,-17.03 15.7,-35.38 15.7,-54.91 0,-20.19 -5.74,-38.67 -17.41,-55.58 -11.64,-17.06 -27.52,-30.34 -47.86,-40.1 -20.21,-9.75 -42.29,-14.57 -66.39,-14.57 -39.78,0 -71.5,11.31 -95.44,33.83 -23.94,22.53 -35.91,53.76 -35.91,93.48l0 374.86 -89.52 0zm967.66 0l0 -203.84 -287.28 0 0 203.84 -89.52 0 0 -353c0,-67.82 21.47,-121.45 64.2,-160.62 42.91,-39.19 99.18,-58.83 168.97,-58.83 45.55,0 85.94,8.72 121.4,26.15 35.28,17.58 62.8,42.95 82.39,76.28 19.56,33.31 29.36,72.24 29.36,117.02l0 353 -89.52 0zm-143.47 -502.96c-46.18,0 -81.77,12.89 -106.5,38.53 -24.86,25.65 -37.31,63.4 -37.31,113.12l0 76.41 287.28 0 0 -76.41c0,-49.72 -12.45,-87.47 -37.31,-113.12 -24.73,-25.64 -60.16,-38.53 -106.16,-38.53zm502.08 502.96l-89.52 0 0 -353.78c0,-67.44 21.47,-120.8 64.2,-159.97 42.91,-39.19 99.18,-58.7 168.97,-58.7 45.55,0 85.94,8.72 121.24,26.15 35.28,17.45 62.81,42.71 82.38,75.89 19.72,33.18 29.53,72.11 29.53,116.63l0 353.78 -89.52 0 0 -349.87c0,-49.61 -12.45,-87.36 -37.31,-112.98 -24.73,-25.65 -60.16,-38.54 -106.16,-38.54 -46.19,0 -81.77,12.89 -106.5,38.54 -24.86,25.62 -37.31,63.37 -37.31,112.98l0 349.87zm717.71 0.78l0 -216.2c-111.91,-22.91 -167.87,-87.46 -167.87,-193.83l0 -152.28 89.54 0 0 153.07c0,41.66 10.72,73.29 32.02,95.29 21.3,21.86 51.45,32.92 90.29,32.92 38.88,0 68.88,-11.06 90.15,-33.05 21.32,-22 31.9,-53.63 31.9,-95.16l0 -153.07 89.52 0 0 152.28c0,106.37 -55.95,170.92 -167.86,193.83l0 216.2 -87.69 0z"/>
  </g>
 </g>
</svg>
