<svg viewBox="0 0 48 48" fill="none" xmlns="http://www.w3.org/2000/svg" height="1em" width="1em" xmlns="http://www.w3.org/2000/svg">
<path d="M41.25 28.42C42.42 28.5 43.53 28.61 44.65 28.63C45.49 28.64 45.75 28.83 45.75 29.69C45.75 31.77 45.75 33.85 45.75 35.93C45.75 40.65 42.38 44.79 37.75 45.7C37.28 45.79 36.73 45.6 36.25 45.45C34.09 44.75 32.33 43.48 31.05 41.59C30.9 41.36 30.75 41.25 30.45 41.25C23.43 41.25 16.42 41.25 9.4 41.25H8.99C8.99 41.76 8.99 42.22 8.99 42.69C8.98 43.62 8.35 44.24 7.42 44.25C6.97 44.25 6.51 44.25 6.06 44.25C5.13 44.24 4.5 43.61 4.49 42.69C4.49 42.22 4.49 41.76 4.49 41.28C3.34 41.14 2.57 40.59 2.3 39.46C2.25 39.25 2.25 39.03 2.25 38.81C2.25 27.43 2.25 16.05 2.25 4.67999C2.25 3.15999 3.18 2.23999 4.71 2.23999C16.07 2.23999 27.43 2.23999 38.79 2.23999C40.34 2.23999 41.25 3.15999 41.26 4.72999C41.26 12.39 41.26 20.05 41.26 27.7V28.42H41.25ZM29.25 35.23C29.25 33.32 29.25 31.46 29.25 29.6C29.25 28.86 29.55 28.58 30.29 28.62C31.85 28.7 33.37 28.46 34.85 27.95C35.17 27.84 35.26 27.68 35.26 27.35C35.25 23.88 35.26 20.41 35.26 16.94V16.53C34.12 16.25 33.76 15.79 33.76 14.64C33.76 13.91 33.76 13.17 33.76 12.44C33.76 11.17 34.03 10.8 35.22 10.43V8.25999H8.27V35.23H29.24H29.25ZM39.75 27.81V27.23C39.75 19.76 39.75 12.29 39.75 4.80999C39.75 3.94999 39.53 3.72999 38.67 3.72999C27.39 3.72999 16.1 3.72999 4.82 3.72999C3.96 3.72999 3.74 3.94999 3.74 4.80999C3.74 16.1 3.74 27.38 3.74 38.67C3.74 39.53 3.96 39.75 4.82 39.75C13.04 39.75 21.26 39.75 29.48 39.75C29.64 39.75 29.8 39.74 29.93 39.73C29.68 38.72 29.44 37.74 29.2 36.75H28.64C21.69 36.75 14.73 36.75 7.78 36.75C6.98 36.75 6.74 36.52 6.74 35.72C6.74 26.4 6.74 17.09 6.74 7.76999C6.74 6.96999 6.97 6.72999 7.77 6.72999C17.08 6.72999 26.4 6.72999 35.71 6.72999C36.51 6.72999 36.75 6.95999 36.75 7.75999C36.75 8.65999 36.75 9.55999 36.75 10.45C37.84 10.68 38.25 11.18 38.25 12.26C38.25 13.04 38.25 13.82 38.25 14.6C38.25 15.79 37.92 16.23 36.77 16.53V27.09C37.4 26.5 37.9 26.84 38.42 27.15C38.82 27.39 39.25 27.56 39.75 27.8V27.81ZM30.75 30.32V30.71C30.75 32.46 30.75 34.21 30.75 35.96C30.75 39.79 33.43 43.23 37.15 44.15C37.37 44.2 37.62 44.21 37.83 44.15C41.55 43.24 44.24 39.8 44.25 35.97C44.25 34.2 44.25 32.44 44.25 30.67V30.18C41.89 30.14 39.73 29.6 37.71 28.51C37.58 28.44 37.36 28.48 37.21 28.54C36.37 28.87 35.57 29.33 34.7 29.56C33.43 29.89 32.11 30.07 30.74 30.32H30.75ZM36.73 12.02H35.29V14.97H36.73V12.02ZM7.48 41.29H6.02V42.72H7.48V41.29Z" />
<path d="M30 22.5201C29.99 27.0701 26.27 30.7601 21.71 30.7501C17.16 30.7401 13.48 27.0101 13.5 22.4501C13.52 17.9001 17.24 14.2201 21.81 14.2501C26.33 14.2701 30.01 17.9901 30 22.5301V22.5201ZM25.93 17.2101C24.92 16.4201 23.81 15.9401 22.52 15.8101C22.47 16.4201 22.65 17.2201 21.75 17.2201C20.86 17.2201 21.03 16.4201 20.98 15.8101C19.69 15.9501 18.58 16.4201 17.57 17.2201C17.92 17.6901 18.64 18.0901 18.05 18.7301C17.39 19.4501 16.94 18.6801 16.45 18.3201C15.67 19.3601 15.17 20.4501 15.06 21.7401C15.66 21.7801 16.41 21.6101 16.46 22.4401C16.51 23.4001 15.67 23.2301 15.05 23.2701C15.21 24.5701 15.66 25.6901 16.47 26.6801C16.94 26.3001 17.35 25.6101 17.99 26.2101C18.68 26.8601 17.92 27.3001 17.57 27.7801C18.59 28.5701 19.69 29.0501 20.98 29.1801C21.01 28.5601 20.85 27.7701 21.75 27.7701C22.64 27.7701 22.46 28.5801 22.51 29.1801C23.8 29.0301 24.91 28.5701 25.92 27.7701C25.56 27.2901 24.83 26.8701 25.47 26.2301C26.11 25.5801 26.54 26.3001 27.02 26.6801C27.8 25.6501 28.31 24.5501 28.41 23.2801C27.31 23.1801 27 23.0001 27 22.4901C27 22.0001 27.28 21.8401 28.44 21.7001C28.3 20.4301 27.83 19.3201 27.04 18.3201C26.13 19.0601 25.82 19.1401 25.46 18.7701C25.1 18.4001 25.19 18.0901 25.93 17.2101Z" />
<path d="M37.19 36.8099C38.14 35.8599 39.03 34.9699 39.92 34.0799C40.03 33.9699 40.14 33.8499 40.26 33.7499C40.59 33.4699 41.02 33.4899 41.31 33.7799C41.59 34.0599 41.61 34.4699 41.31 34.7899C40.89 35.2499 40.44 35.6799 39.99 36.1199C39.27 36.8399 38.56 37.5599 37.84 38.2699C37.4 38.7099 37.01 38.7199 36.58 38.2899C35.95 37.6799 35.34 37.0599 34.73 36.4399C34.38 36.0799 34.37 35.6199 34.68 35.3199C35 35.0099 35.43 35.0299 35.8 35.3999C36.26 35.8499 36.69 36.3099 37.18 36.8099H37.19Z" />
<path d="M21.7301 26.24C19.6601 26.24 17.9801 24.54 18.0001 22.46C18.0101 20.39 19.7101 18.72 21.7901 18.74C23.8401 18.76 25.5001 20.44 25.5001 22.49C25.5001 24.56 23.8101 26.24 21.7401 26.24H21.7301ZM19.5001 22.46C19.4901 23.68 20.4801 24.71 21.7001 24.74C22.9401 24.77 23.9901 23.76 24.0001 22.52C24.0101 21.3 23.0201 20.27 21.8001 20.24C20.5501 20.22 19.5101 21.22 19.5001 22.46Z" />
</svg>
